<svg width="85" height="199" viewBox="0 0 85 199" fill="none" xmlns="http://www.w3.org/2000/svg">
<path d="M53.2088 29.0151H32.2578V13.3318L53.2088 13.3318V29.0151Z" fill="#B2151B"/>
<path d="M16.3618 199C10.218 199 5.07115 194.179 4.38939 187.786L4.37704 187.639L0.586914 122.655V122.566C0.586914 106.436 8.83992 91.809 22.2308 84.0044L26.8465 30.0409C27.2182 25.6319 30.69 22.304 34.922 22.304H50.5452C54.7773 22.304 58.249 25.6319 58.6208 30.045L63.2359 84.0044C76.6273 91.809 84.8804 106.436 84.8804 122.566V122.655L81.0857 187.713L81.0773 187.786C80.3961 194.179 75.2493 199 69.1055 199H16.3618Z" fill="#B2151B"/>
<path d="M60.5753 85.8513L55.8243 30.3032C55.5828 27.4388 53.2916 25.2449 50.5454 25.2449H42.7338L34.9222 25.2449C32.1761 25.2449 29.8848 27.4388 29.6434 30.3032L24.8924 85.8513C12.1332 92.6624 3.39502 106.544 3.39502 122.566L7.18008 187.46C7.70235 192.359 11.6559 196.059 16.3619 196.059H42.7338H69.1057C73.8118 196.059 77.7653 192.359 78.2876 187.46L82.0726 122.566C82.0726 106.544 73.3344 92.6624 60.5753 85.8513Z" fill="#ED1C24"/>
<path d="M20.2238 165.187L16.6689 127.986C16.9441 115.21 28.5307 104.893 42.7337 104.893C56.9366 104.893 68.5232 115.21 68.7983 127.986L65.243 165.187C65.1003 166.681 63.7166 167.828 62.0571 167.828H23.4102C21.7501 167.828 20.3664 166.681 20.2238 165.187Z" fill="#F6D77A"/>
<path d="M24.9546 163.417H60.5129L63.9116 127.85C63.5595 117.62 54.071 109.304 42.7338 109.304C31.3966 109.304 21.9081 117.62 21.5565 127.85L24.9546 163.417ZM62.3043 165.181H23.1632L19.6011 127.9L19.6029 127.85C19.9544 116.651 30.3313 107.539 42.7339 107.539C55.1358 107.539 65.5133 116.651 65.8649 127.85L65.8667 127.9L65.8622 127.951L62.3043 165.181Z" fill="#B9A15C"/>
<path d="M58.1315 145.252C56.5743 149.199 51.6975 150.833 47.2385 148.903C42.7801 146.973 40.4277 142.21 41.9849 138.264C43.5416 134.318 48.3886 133.392 52.1063 136.567C56.0919 136.004 59.6882 141.306 58.1315 145.252Z" fill="#ED1C24"/>
<path d="M58.1313 145.253C56.5746 149.199 51.6978 150.833 47.2394 148.903C46.9766 148.789 46.72 148.666 46.4712 148.531C50.6516 148.719 54.0548 147.283 55.1735 144.45C56.1175 142.056 55.2369 139.165 53.0799 136.543C56.6493 136.868 59.56 141.632 58.1313 145.253Z" fill="#D11920"/>
<path d="M53.0107 137.304L53.1191 139.803L51.654 137.284L49.1128 138.069L51.0621 136.083L49.4228 134.222L51.7118 135.114L52.5064 133.882L52.8877 135.367L55.3834 135.738C55.3834 135.738 55.3812 135.739 55.3778 135.739L53.574 136.485L54.9768 138.438L53.0107 137.304Z" fill="#22B573"/>
<path d="M53.0107 137.304L53.1191 139.803L51.654 137.284L49.1128 138.069C49.4177 137.761 51.2929 137.027 51.2929 137.027L51.6259 136.183L52.4974 137.142L52.7401 136.526L52.9843 136.563L53.0798 136.543C53.0798 136.543 52.7406 136.14 53.0794 135.994C53.4079 135.853 55.2622 135.746 55.3779 135.74L53.5741 136.485L54.977 138.438L53.0107 137.304Z" fill="#1D9961"/>
<path d="M52.3389 135.977C52.3389 135.977 53.8804 132.761 54.6172 133.079C55.3546 133.398 54.6655 133.762 54.6655 133.762L52.6298 136.102L52.3389 135.977Z" fill="#22B573"/>
<path d="M53.4804 136.044C53.4136 136.214 52.7532 136.44 52.4724 136.257C52.1916 135.913 51.9731 135.88 52.04 135.71C52.4173 135.565 52.4089 135.512 52.7139 135.643C53.0194 135.776 53.5467 135.875 53.4804 136.044Z" fill="#1D9961"/>
<path d="M54.6648 133.762L52.6836 136.04L52.5802 135.982L52.4926 136.044C52.4089 136.007 52.3724 135.905 52.4146 135.821C52.7358 135.181 53.9791 132.803 54.6171 133.08C54.7979 133.158 54.8934 133.239 54.9333 133.318C54.9337 133.317 54.9337 133.317 54.935 133.318C55.0547 133.556 54.6648 133.762 54.6648 133.762Z" fill="#22B573"/>
<path d="M54.6652 133.762L52.6839 136.04L52.5806 135.982C52.5806 135.982 54.1333 133.441 54.9336 133.318C54.9341 133.317 54.9341 133.317 54.9354 133.318C55.055 133.556 54.6652 133.762 54.6652 133.762Z" fill="#1D9961"/>
<path d="M48.6492 138.892C48.6492 144.592 43.4282 149.213 36.988 149.213C30.5478 149.213 25.3262 144.592 25.3262 138.892C25.3262 133.192 30.8561 129.462 36.988 131.393C41.6317 128.571 48.6492 133.192 48.6492 138.892Z" fill="#ED1C24"/>
<path d="M48.6494 138.893C48.6494 144.593 43.4284 149.213 36.9893 149.213C36.608 149.213 36.2317 149.197 35.8594 149.164C41.1085 147.163 44.6088 143.575 44.6088 139.481C44.6088 136.024 42.1143 132.928 38.1776 130.845C42.7393 129.339 48.6494 133.662 48.6494 138.893Z" fill="#D11920"/>
<path d="M30.2061 138.669C30.2061 140.781 32.0587 142.493 30.6357 142.493C29.2121 142.493 28.0586 140.781 28.0586 138.669C28.0586 136.557 29.2121 134.846 30.6357 134.846C32.0587 134.846 30.2061 136.557 30.2061 138.669Z" fill="#F88B8F"/>
<path d="M38.4627 131.82L39.8127 134.846L36.7785 132.52L34.0262 134.846L35.4638 131.355L32.5352 129.934L35.7935 129.811L36.1742 127.867L37.367 129.495L40.6276 128.622C40.6276 128.622 40.6253 128.625 40.6214 128.626L38.7581 130.509L41.4396 132.17L38.4627 131.82Z" fill="#22B573"/>
<path d="M38.4629 131.82L39.8129 134.846L36.7787 132.52L34.0264 134.846C34.2516 134.302 36.2081 132.395 36.2081 132.395V131.177L37.7502 131.894V131.005L38.0692 130.92L38.1776 130.845C38.1776 130.845 37.5632 130.528 37.9097 130.168C38.2455 129.818 40.4812 128.696 40.6216 128.626L38.7583 130.508L41.4398 132.17L38.4629 131.82Z" fill="#1D9961"/>
<path d="M36.9883 130.541C36.9883 130.541 37.3241 125.75 38.3883 125.75C39.4531 125.75 38.7808 126.567 38.7808 126.567L37.4078 130.541H36.9883Z" fill="#22B573"/>
<path d="M38.4283 130.015C38.4283 130.26 37.7241 130.891 37.2883 130.815C36.775 130.541 36.4897 130.617 36.4897 130.372C36.884 129.991 36.8475 129.929 37.2883 129.929C37.7297 129.929 38.4283 129.77 38.4283 130.015Z" fill="#1D9961"/>
<path d="M38.7797 126.566L37.4443 130.435L37.2887 130.419L37.2107 130.541C37.0899 130.541 36.995 130.435 37.0057 130.309C37.0899 129.347 37.4673 125.751 38.3883 125.751C38.65 125.751 38.8073 125.8 38.8949 125.875C38.8949 125.873 38.8949 125.873 38.8967 125.875C39.1606 126.105 38.7797 126.566 38.7797 126.566Z" fill="#22B573"/>
<path d="M38.7796 126.566L37.4441 130.435L37.2886 130.419C37.2886 130.419 37.967 126.455 38.8947 125.875C38.8947 125.873 38.8947 125.873 38.8965 125.875C39.1604 126.105 38.7796 126.566 38.7796 126.566Z" fill="#1D9961"/>
<path d="M32.2903 29.0151C31.3406 29.0151 30.5499 29.7768 30.4702 30.7679L25.9214 87.6099C14.802 94.8916 7.41162 107.826 7.41162 122.566L11.1967 187.46C11.719 192.359 15.6725 196.059 20.3785 196.059H28.1902C23.4841 196.059 19.5306 192.359 19.0083 187.46L15.2232 122.566C15.2232 110.857 19.8883 100.289 27.3826 92.7854C29.2948 90.8708 30.414 88.2469 30.5943 85.4825L30.6274 84.9749L34.1121 31.0567C34.1834 29.9521 33.3472 29.0151 32.2903 29.0151Z" fill="#F4777C"/>
<path d="M57.5548 21.1281L27.9123 21.1281C25.3768 21.1281 23.3208 18.9754 23.3208 16.3197V4.80899C23.3208 2.15334 25.3768 0 27.9123 0L57.5548 0C60.0904 0 62.1458 2.15334 62.1458 4.80899V16.3197C62.1458 18.9754 60.0904 21.1281 57.5548 21.1281Z" fill="#B2151B"/>
<path d="M60.4627 4.81143V16.3222C60.4627 17.9985 59.1598 19.3631 57.5537 19.3631L27.9134 19.3631C26.3073 19.3631 25.0044 17.9985 25.0044 16.3222V4.81143C25.0044 3.12923 26.3073 1.76465 27.9134 1.76465L57.5537 1.76465C59.1598 1.76465 60.4627 3.12923 60.4627 4.81143Z" fill="#ED1C24"/>
<path d="M27.9122 20.3387H26.355V7.48158C26.355 7.03103 26.7037 6.66577 27.1339 6.66577C27.5635 6.66577 27.9122 7.03103 27.9122 7.48158V20.3387Z" fill="#B2151B"/>
<path d="M30.7321 20.3387H29.1743V7.48158C29.1743 7.03103 29.5231 6.66577 29.9532 6.66577C30.3834 6.66577 30.7321 7.03103 30.7321 7.48158V20.3387Z" fill="#B2151B"/>
<path d="M33.5514 20.3387H31.9941V7.48158C31.9941 7.03103 32.3429 6.66577 32.773 6.66577C33.2027 6.66577 33.5514 7.03103 33.5514 7.48158V20.3387Z" fill="#B2151B"/>
<path d="M36.3703 20.3387H34.813V7.48158C34.813 7.03103 35.1617 6.66577 35.5919 6.66577C36.0221 6.66577 36.3703 7.03103 36.3703 7.48158V20.3387Z" fill="#B2151B"/>
<path d="M39.1901 20.3387H37.6328V7.48158C37.6328 7.03103 37.9816 6.66577 38.4117 6.66577C38.8413 6.66577 39.1901 7.03103 39.1901 7.48158V20.3387Z" fill="#B2151B"/>
<path d="M42.0093 20.3387H40.4526V7.48158C40.4526 7.03103 40.8008 6.66577 41.231 6.66577C41.6612 6.66577 42.0093 7.03103 42.0093 7.48158V20.3387Z" fill="#B2151B"/>
<path d="M44.8288 20.3387H43.2715V7.48158C43.2715 7.03103 43.6197 6.66577 44.0504 6.66577C44.48 6.66577 44.8288 7.03103 44.8288 7.48158V20.3387Z" fill="#B2151B"/>
<path d="M47.6486 20.3387H46.0913V7.48158C46.0913 7.03103 46.4395 6.66577 46.8697 6.66577C47.2998 6.66577 47.6486 7.03103 47.6486 7.48158V20.3387Z" fill="#B2151B"/>
<path d="M50.4673 20.3387H48.9106V7.48158C48.9106 7.03103 49.2588 6.66577 49.6896 6.66577C50.1192 6.66577 50.4673 7.03103 50.4673 7.48158V20.3387Z" fill="#B2151B"/>
<path d="M53.2867 20.3387H51.73V7.48158C51.73 7.03103 52.0782 6.66577 52.5083 6.66577C52.9385 6.66577 53.2867 7.03103 53.2867 7.48158V20.3387Z" fill="#B2151B"/>
<path d="M56.1066 20.3387H54.5493V7.48158C54.5493 7.03103 54.8975 6.66577 55.3282 6.66577C55.7578 6.66577 56.1066 7.03103 56.1066 7.48158V20.3387Z" fill="#B2151B"/>
<path d="M58.9258 20.3387H57.3691V7.48158C57.3691 7.03103 57.7173 6.66577 58.1469 6.66577C58.5777 6.66577 58.9258 7.03103 58.9258 7.48158V20.3387Z" fill="#B2151B"/>
<path d="M60.4627 4.81143V4.81732C55.3523 5.9878 49.2647 6.66421 42.7335 6.66421C36.2023 6.66421 30.1148 5.9878 25.0044 4.81732V4.81143C25.0044 3.12923 26.3073 1.76465 27.9134 1.76465L57.5537 1.76465C59.1598 1.76465 60.4627 3.12923 60.4627 4.81143Z" fill="#F4777C"/>
</svg>
