<svg width="85" height="199" viewBox="0 0 85 199" fill="none" xmlns="http://www.w3.org/2000/svg">
<path d="M52.6218 29.0151H31.6709V13.3318L52.6218 13.3318V29.0151Z" fill="#B38D22"/>
<path d="M15.7748 199C9.63113 199 4.48424 194.179 3.80248 187.786L3.79012 187.639L0 122.655L0 122.566C0 106.436 8.25301 91.809 21.6439 84.0044L26.2596 30.0409C26.6313 25.6319 30.103 22.304 34.3351 22.304H49.9583C54.1904 22.304 57.6621 25.6319 58.0339 30.045L62.6489 84.0044C76.0404 91.809 84.2934 106.436 84.2934 122.566V122.655L80.4988 187.713L80.4904 187.786C79.8092 194.179 74.6623 199 68.5186 199H15.7748Z" fill="#B38D22"/>
<path d="M59.9884 85.8513L55.2374 30.3032C54.9959 27.4388 52.7047 25.2449 49.9585 25.2449H42.1469L34.3353 25.2449C31.5892 25.2449 29.2979 27.4388 29.0564 30.3032L24.3055 85.8513C11.5463 92.6624 2.80811 106.544 2.80811 122.566L6.59317 187.46C7.11544 192.359 11.069 196.059 15.775 196.059H42.1469H68.5188C73.2249 196.059 77.1784 192.359 77.7007 187.46L81.4857 122.566C81.4857 106.544 72.7475 92.6624 59.9884 85.8513Z" fill="#FFC72C"/>
<path d="M19.6368 165.187L16.082 127.986C16.3572 115.21 27.9438 104.893 42.1467 104.893C56.3497 104.893 67.9363 115.21 68.2114 127.986L64.6561 165.187C64.5134 166.681 63.1297 167.828 61.4702 167.828H22.8233C21.1632 167.828 19.7795 166.681 19.6368 165.187Z" fill="#F6D77A"/>
<path d="M24.3677 163.417H59.926L63.3247 127.85C62.9725 117.62 53.4841 109.304 42.1469 109.304C30.8096 109.304 21.3211 117.62 20.9696 127.85L24.3677 163.417ZM61.7174 165.181H22.5763L19.0142 127.9L19.016 127.85C19.3675 116.651 29.7444 107.539 42.147 107.539C54.5489 107.539 64.9264 116.651 65.278 127.85L65.2798 127.9L65.2753 127.951L61.7174 165.181Z" fill="#B9A15C"/>
<path d="M31.7034 29.0151C30.7537 29.0151 29.963 29.7768 29.8833 30.7679L25.3344 87.6099C14.2151 94.8916 6.82471 107.826 6.82471 122.566L10.6098 187.46C11.132 192.359 15.0856 196.059 19.7916 196.059H27.6032C22.8972 196.059 18.9437 192.359 18.4214 187.46L14.6363 122.566C14.6363 110.857 19.3014 100.289 26.7957 92.7854C28.7079 90.8708 29.8271 88.2469 30.0074 85.4825L30.0405 84.9749L33.5251 31.0567C33.5965 29.9521 32.7603 29.0151 31.7034 29.0151Z" fill="#FFE18E"/>
<path d="M56.9679 21.1281L27.3254 21.1281C24.7898 21.1281 22.7339 18.9754 22.7339 16.3197V4.80899C22.7339 2.15334 24.7898 0 27.3254 0L56.9679 0C59.5035 0 61.5589 2.15334 61.5589 4.80899V16.3197C61.5589 18.9754 59.5035 21.1281 56.9679 21.1281Z" fill="#B38D22"/>
<path d="M59.8758 4.81143V16.3222C59.8758 17.9985 58.5729 19.3631 56.9668 19.3631L27.3265 19.3631C25.7203 19.3631 24.4175 17.9985 24.4175 16.3222V4.81143C24.4175 3.12923 25.7203 1.76465 27.3265 1.76465L56.9668 1.76465C58.5729 1.76465 59.8758 3.12923 59.8758 4.81143Z" fill="#FFC72C"/>
<path d="M27.3253 20.3389H25.7681V7.48183C25.7681 7.03128 26.1168 6.66602 26.547 6.66602C26.9766 6.66602 27.3253 7.03128 27.3253 7.48183V20.3389Z" fill="#B38D22"/>
<path d="M30.1452 20.3389H28.5874V7.48183C28.5874 7.03128 28.9361 6.66602 29.3663 6.66602C29.7965 6.66602 30.1452 7.03128 30.1452 7.48183V20.3389Z" fill="#B38D22"/>
<path d="M32.9645 20.3389H31.4072V7.48183C31.4072 7.03128 31.756 6.66602 32.1861 6.66602C32.6157 6.66602 32.9645 7.03128 32.9645 7.48183V20.3389Z" fill="#B38D22"/>
<path d="M35.7833 20.3389H34.2261V7.48183C34.2261 7.03128 34.5748 6.66602 35.005 6.66602C35.4352 6.66602 35.7833 7.03128 35.7833 7.48183V20.3389Z" fill="#B38D22"/>
<path d="M38.6032 20.3389H37.0459V7.48183C37.0459 7.03128 37.3946 6.66602 37.8248 6.66602C38.2544 6.66602 38.6032 7.03128 38.6032 7.48183V20.3389Z" fill="#B38D22"/>
<path d="M41.4224 20.3389H39.8657V7.48183C39.8657 7.03128 40.2139 6.66602 40.6441 6.66602C41.0743 6.66602 41.4224 7.03128 41.4224 7.48183V20.3389Z" fill="#B38D22"/>
<path d="M44.2418 20.3389H42.6846V7.48183C42.6846 7.03128 43.0328 6.66602 43.4635 6.66602C43.8931 6.66602 44.2418 7.03128 44.2418 7.48183V20.3389Z" fill="#B38D22"/>
<path d="M47.0617 20.3389H45.5044V7.48183C45.5044 7.03128 45.8526 6.66602 46.2827 6.66602C46.7129 6.66602 47.0617 7.03128 47.0617 7.48183V20.3389Z" fill="#B38D22"/>
<path d="M49.8804 20.3389H48.3237V7.48183C48.3237 7.03128 48.6719 6.66602 49.1026 6.66602C49.5322 6.66602 49.8804 7.03128 49.8804 7.48183V20.3389Z" fill="#B38D22"/>
<path d="M52.6998 20.3389H51.1431V7.48183C51.1431 7.03128 51.4912 6.66602 51.9214 6.66602C52.3516 6.66602 52.6998 7.03128 52.6998 7.48183V20.3389Z" fill="#B38D22"/>
<path d="M55.5197 20.3389H53.9624V7.48183C53.9624 7.03128 54.3106 6.66602 54.7413 6.66602C55.1709 6.66602 55.5197 7.03128 55.5197 7.48183V20.3389Z" fill="#B38D22"/>
<path d="M58.3389 20.3389H56.7822V7.48183C56.7822 7.03128 57.1304 6.66602 57.56 6.66602C57.9908 6.66602 58.3389 7.03128 58.3389 7.48183V20.3389Z" fill="#B38D22"/>
<path d="M59.8758 4.81143V4.81732C54.7654 5.9878 48.6778 6.66421 42.1466 6.66421C35.6154 6.66421 29.5279 5.9878 24.4175 4.81732V4.81143C24.4175 3.12923 25.7203 1.76465 27.3265 1.76465L56.9668 1.76465C58.5729 1.76465 59.8758 3.12923 59.8758 4.81143Z" fill="#FFE18E"/>
<g clip-path="url(#clip0_20_20)">
<path d="M47.0044 153.023C37.1852 156.392 38.8564 150.314 30.5335 145.888C22.233 141.474 26.594 132.74 36.2574 127.164C47.9481 120.418 59.375 121.588 56.7732 132.74C54.1713 143.891 55.2399 149.951 47.0044 153.023Z" fill="#F3F3F3"/>
<path d="M41.6463 143.46C44.8993 143.46 47.5363 140.823 47.5363 137.57C47.5363 134.317 44.8993 131.68 41.6463 131.68C38.3934 131.68 35.7563 134.317 35.7563 137.57C35.7563 140.823 38.3934 143.46 41.6463 143.46Z" fill="#F0C419"/>
<path d="M50.6367 125.18C52.5394 125.18 54.9168 127.118 55.3105 129.82M42.5767 133.967C43.7413 134.302 44.6568 135.196 45.0644 136.33" stroke="white" stroke-width="3" stroke-miterlimit="10" stroke-linecap="round" stroke-linejoin="round"/>
</g>
<defs>
<clipPath id="clip0_20_20">
<rect width="31" height="31" fill="white" transform="translate(26.1465 123)"/>
</clipPath>
</defs>
</svg>
